REM MD5 886cc49a4ca044c2fc66c33264de09fb
FILE "Official U.S. PlayStation Magazine Demo Disc 10 (USA).bin" BINARY
  TRACK 01 MODE2/2352
    INDEX 01 00:00:00
  TRACK 02 AUDIO
    INDEX 00 46:01:63
    INDEX 01 46:03:63
  TRACK 03 AUDIO
    INDEX 00 47:57:15
    INDEX 01 47:59:15
  TRACK 04 AUDIO
    INDEX 00 49:03:08
    INDEX 01 49:05:08
  TRACK 05 AUDIO
    INDEX 00 49:10:49
    INDEX 01 49:12:49
  TRACK 06 AUDIO
    INDEX 00 52:04:32
    INDEX 01 52:06:32
REM LEADOUT 52:12:28
